<svg xmlns="http://www.w3.org/2000/svg" width="16.523" height="15.333" viewBox="0 0 16.523 15.333">
  <g id="edit" transform="translate(-317.967 -363.927)">
    <path id="Path_1" data-name="Path 1" d="M14.606,47.983a.405.405,0,0,0-.394.416v3.693a1.218,1.218,0,0,1-1.182,1.248H1.971A1.218,1.218,0,0,1,.788,52.092V41.252A1.218,1.218,0,0,1,1.971,40h3.5a.417.417,0,0,0,0-.832h-3.5A2.03,2.03,0,0,0,0,41.252v10.84a2.03,2.03,0,0,0,1.971,2.08H13.029A2.03,2.03,0,0,0,15,52.092V48.4a.405.405,0,0,0-.394-.416Zm0,0" transform="translate(317.967 325.089)"/>
    <path id="Path_2" data-name="Path 2" d="M118.736.741a1.867,1.867,0,0,0-2.5,0l-7.009,6.5a.359.359,0,0,0-.1.16l-.922,3.087a.347.347,0,0,0,.1.355.414.414,0,0,0,.383.094l3.327-.855a.4.4,0,0,0,.173-.094l3.689-3.423,3.32-3.08a1.559,1.559,0,0,0,0-2.32Zm-8.653,6.74,5.736-5.322,1.85,1.716L111.933,9.2Zm-.37.688,1.478,1.371-2.044.526Zm8.928-5.2-.417.387-1.85-1.717.417-.387a1.037,1.037,0,0,1,1.389,0l.461.428A.867.867,0,0,1,118.641,2.973Zm0,0" transform="translate(214.777 363.667)"/>
  </g>
</svg>
